<svg width="30" height="29" viewBox="0 0 30 29" fill="none" xmlns="http://www.w3.org/2000/svg">
<g clip-path="url(#clip0_724_1539)">
<path d="M22.7031 0H7.29688C3.54306 0 0.5 3.04306 0.5 6.79688V22.2031C0.5 25.9569 3.54306 29 7.29688 29H22.7031C26.4569 29 29.5 25.9569 29.5 22.2031V6.79688C29.5 3.04306 26.4569 0 22.7031 0Z" fill="#473EE7"/>
<path d="M25.1953 14.5002C25.1953 8.86935 20.6306 4.30469 14.9998 4.30469C10.8597 4.30469 7.29586 6.77241 5.69904 10.3172L19.1829 23.801C19.7585 23.5415 20.3088 23.229 20.8266 22.8677L12.459 14.5002H14.9998L22.2091 21.7096C24.0541 19.8645 25.1953 17.3156 25.1953 14.5002ZM4.80469 14.5035L14.9967 24.6955C9.36868 24.6937 4.80661 20.1317 4.80469 14.5035Z" fill="white"/>
</g>
<defs>
<clipPath id="clip0_724_1539">
<rect width="29" height="29" fill="white" transform="translate(0.5)"/>
</clipPath>
</defs>
</svg>
