<svg xmlns="http://www.w3.org/2000/svg" viewBox="0 0 24 24" width="24" height="24" ><path  d="M13.89 7.525a1 1 0 0 0-1.415-1.414l1.414 1.414Zm-7.78 4.95a1 1 0 1 0 1.415 1.414l-1.414-1.414Zm6.365 1.414a1 1 0 0 0 1.414-1.414l-1.414 1.414Zm-4.95-7.778a1 1 0 0 0-1.414 1.414l1.414-1.414ZM18 10a8 8 0 0 1-8 8v2c5.523 0 10-4.477 10-10h-2Zm-8 8a8 8 0 0 1-8-8H0c0 5.523 4.477 10 10 10v-2Zm-8-8a8 8 0 0 1 8-8V0C4.477 0 0 4.477 0 10h2Zm8-8a8 8 0 0 1 8 8h2c0-5.523-4.477-10-10-10v2Zm2.475 4.11L9.293 9.294l1.414 1.414 3.182-3.182-1.414-1.414ZM9.293 9.294 6.11 12.475l1.414 1.414 3.182-3.182-1.414-1.414Zm4.596 3.182-3.182-3.182-1.414 1.414 3.182 3.182 1.414-1.414Zm-3.182-3.182L7.525 6.11 6.111 7.525l3.182 3.182 1.414-1.414Z"/></svg>